<svg width="426" height="92" viewBox="0 0 426 92" fill="none" xmlns="http://www.w3.org/2000/svg">
<path d="M365 21.5V0L425.5 2.5V22.5L392 92H366L399.5 22.5L365 21.5Z" fill="#FBE156"/>
<path d="M26.5 5.5H0L33.5 91.5H66.5L92.5 2L66.5 3.5L49 67.5L26.5 5.5Z" fill="#003399"/>
<path d="M103.5 90L101 2H125.5L127.5 90H103.5Z" fill="#003399"/>
<path d="M141 90V2V1H164.5L198.5 50.5L197 0H222.5V88.5H198.5L165.5 41.5V90H141Z" fill="#003399"/>
<path d="M261.5 0H237L236.5 88.5H261L261.5 0Z" fill="#003399"/>
<path d="M299 1H271.5L300 44.5L270 88.5L297.5 89.5L312.5 65.5L329.5 90.5H358L329.5 46.5L358.5 2.5H330.5L315.5 26L299 1Z" fill="#003399"/>
</svg>
